<svg xmlns="http://www.w3.org/2000/svg" version="1.1" xmlns:xlink="http://www.w3.org/1999/xlink" width="512" height="512" x="0" y="0" viewBox="0 0 475.176 475.176" style="enable-background:new 0 0 512 512" xml:space="preserve"><g><path d="M448.776 422.378H26.399C11.819 422.378 0 410.559 0 395.979s11.819-26.399 26.399-26.399h422.378c14.58 0 26.399 11.82 26.399 26.399s-11.82 26.399-26.4 26.399zM237.587 263.987H26.399C11.819 263.987 0 252.167 0 237.588c0-14.58 11.819-26.399 26.399-26.399h211.189c14.58 0 26.399 11.819 26.399 26.399 0 14.579-11.82 26.399-26.4 26.399zm211.189-158.392H26.399C11.819 105.595 0 93.776 0 79.196s11.819-26.399 26.399-26.399h422.378c14.58 0 26.399 11.819 26.399 26.399s-11.82 26.399-26.4 26.399z" fill="#FFF" opacity="1"></path></g></svg>